<?xml version="1.0" encoding="UTF-8" standalone="no"?>
<svg
   xmlns:dc="http://purl.org/dc/elements/1.1/"
   xmlns:cc="http://creativecommons.org/ns#"
   xmlns:rdf="http://www.w3.org/1999/02/22-rdf-syntax-ns#"
   xmlns:svg="http://www.w3.org/2000/svg"
   xmlns="http://www.w3.org/2000/svg"
   xmlns:sodipodi="http://sodipodi.sourceforge.net/DTD/sodipodi-0.dtd"
   xmlns:inkscape="http://www.inkscape.org/namespaces/inkscape"
   sodipodi:docname="cstation.svg"
   inkscape:version="1.0 (4035a4fb49, 2020-05-01)"
   id="svg1188"
   version="1.1"
   viewBox="0 0 36.010426 41.912682"
   height="41.912682mm"
   width="36.010426mm">
  <defs
     id="defs1182" />
  <sodipodi:namedview
     inkscape:window-maximized="1"
     inkscape:window-y="-9"
     inkscape:window-x="-9"
     inkscape:window-height="1001"
     inkscape:window-width="1920"
     showgrid="false"
     inkscape:document-rotation="0"
     inkscape:current-layer="layer1"
     inkscape:document-units="mm"
     inkscape:cy="376.34792"
     inkscape:cx="145.19406"
     inkscape:zoom="0.35"
     inkscape:pageshadow="2"
     inkscape:pageopacity="0.0"
     borderopacity="1.0"
     bordercolor="#666666"
     pagecolor="#ffffff"
     id="base" />
  <metadata
     id="metadata1185">
    <rdf:RDF>
      <cc:Work
         rdf:about="">
        <dc:format>image/svg+xml</dc:format>
        <dc:type
           rdf:resource="http://purl.org/dc/dcmitype/StillImage" />
        <dc:title></dc:title>
      </cc:Work>
    </rdf:RDF>
  </metadata>
  <g
     transform="translate(-67.417406,-109.06747)"
     style="display:inline"
     id="layer1"
     inkscape:groupmode="layer"
     inkscape:label="Layer 1">
    <g
       transform="matrix(0.35277777,0,0,-0.35277777,-64.473855,301.85925)"
       style="display:inline"
       id="g1153">
      <g
         transform="translate(453.666,536.004)"
         id="g871">
        <path
           id="path873"
           style="fill:#352c5a;fill-opacity:1;fill-rule:nonzero;stroke:none"
           d="m 0,0 v -4.357 c 0,-1.569 1.275,-2.846 2.845,-2.846 h 4.89 c 1.57,0 2.846,1.277 2.846,2.846 V 0 Z m -2.846,-4.357 v 5.779 c 0,0.786 0.637,1.423 1.423,1.423 h 13.427 c 0.785,0 1.423,-0.637 1.423,-1.423 v -5.779 c 0,-3.138 -2.554,-5.691 -5.692,-5.691 h -4.89 c -3.138,0 -5.691,2.553 -5.691,5.691" />
      </g>
      <g
         transform="translate(461.4463,537.4264)"
         id="g875">
        <path
           id="path877"
           style="fill:#352c5a;fill-opacity:1;fill-rule:nonzero;stroke:none"
           d="M 0,0 V 7.647 C 0,8.433 0.637,9.07 1.423,9.07 2.208,9.07 2.845,8.433 2.845,7.647 V 0 C 2.845,-0.786 2.208,-1.422 1.423,-1.422 0.637,-1.422 0,-0.786 0,0" />
      </g>
      <g
         transform="translate(453.6211,537.4264)"
         id="g879">
        <path
           id="path881"
           style="fill:#352c5a;fill-opacity:1;fill-rule:nonzero;stroke:none"
           d="M 0,0 V 7.647 C 0,8.433 0.638,9.07 1.423,9.07 2.209,9.07 2.846,8.433 2.846,7.647 V 0 C 2.846,-0.786 2.209,-1.422 1.423,-1.422 0.638,-1.422 0,-0.786 0,0" />
      </g>
      <g
         transform="translate(383.4678,441.1442)"
         id="g883">
        <path
           id="path885"
           style="fill:#352c5a;fill-opacity:1;fill-rule:nonzero;stroke:none"
           d="m 0,0 h 49.319 v 90.814 c 0,0.785 -0.638,1.422 -1.423,1.422 H 1.422 C 0.638,92.236 0,91.599 0,90.814 Z M 50.742,-2.845 H -1.423 c -0.785,0 -1.422,0.636 -1.422,1.422 v 92.237 c 0,2.353 1.914,4.268 4.267,4.268 h 46.474 c 2.354,0 4.269,-1.915 4.269,-4.268 V -1.423 c 0,-0.786 -0.638,-1.422 -1.423,-1.422" />
      </g>
      <g
         transform="translate(392.1816,524.3302)"
         id="g887">
        <path
           id="path889"
           style="fill:#352c5a;fill-opacity:1;fill-rule:nonzero;stroke:none"
           d="M 0,0 C -0.002,0 0,-40.604 0,-40.604 H 40.605 V 0 Z M 42.028,-43.45 H 0 c -1.569,0 -2.845,1.277 -2.845,2.846 V 0 c 0,1.569 1.276,2.846 2.845,2.846 h 42.028 c 0.785,0 1.423,-0.637 1.423,-1.423 v -43.45 c 0,-0.786 -0.638,-1.423 -1.423,-1.423" />
      </g>
      <g
         transform="translate(434.2129,510.2579)"
         id="g891">
        <path
           id="path893"
           style="fill:#352c5a;fill-opacity:1;fill-rule:nonzero;stroke:none"
           d="m 0,0 c -0.001,0 -21.726,0.008 -21.726,0.008 -0.786,0 -1.422,0.638 -1.422,1.423 0,0.786 0.637,1.423 1.422,1.423 10e-4,0 21.727,-0.009 21.727,-0.009 0.786,0 1.422,-0.637 1.422,-1.422 C 1.423,0.636 0.786,0 0,0" />
      </g>
      <g
         transform="translate(434.207,495.1422)"
         id="g895">
        <path
           id="path897"
           style="fill:#352c5a;fill-opacity:1;fill-rule:nonzero;stroke:none"
           d="m 0,0 c -0.001,0 -21.727,0.008 -21.727,0.008 -0.785,0 -1.421,0.638 -1.421,1.423 0,0.786 0.637,1.423 1.422,1.423 10e-4,0 21.727,-0.009 21.727,-0.009 0.785,0 1.422,-0.637 1.422,-1.423 C 1.423,0.636 0.785,0 0,0" />
      </g>
      <g
         transform="translate(400.6284,487.6285)"
         id="g899">
        <path
           id="path901"
           style="fill:#352c5a;fill-opacity:1;fill-rule:nonzero;stroke:none"
           d="m 0,0 c -0.198,0 -0.399,0.042 -0.591,0.129 -0.715,0.327 -1.029,1.17 -0.703,1.886 l 6.015,13.159 h -6.855 c -0.49,0 -0.947,0.253 -1.206,0.67 -0.26,0.415 -0.287,0.936 -0.072,1.378 L 3.81,32.003 c 0.345,0.705 1.195,0.999 1.902,0.653 0.706,-0.344 0.999,-1.196 0.654,-1.903 L 0.145,18.02 h 6.791 c 0.484,0 0.935,-0.247 1.197,-0.655 0.262,-0.407 0.298,-0.92 0.097,-1.36 L 1.294,0.831 C 1.056,0.308 0.54,0 0,0" />
      </g>
      <g
         transform="translate(395.2939,474.8146)"
         id="g903">
        <path
           id="path905"
           style="fill:#352c5a;fill-opacity:1;fill-rule:nonzero;stroke:none"
           d="m 0,0 c -1.716,0 -3.112,-1.396 -3.112,-3.112 0,-1.716 1.396,-3.112 3.112,-3.112 1.716,0 3.112,1.396 3.112,3.112 C 3.112,-1.396 1.716,0 0,0 m 0,-9.069 c -3.285,0 -5.958,2.673 -5.958,5.957 0,3.284 2.673,5.957 5.958,5.957 3.285,0 5.957,-2.673 5.957,-5.957 0,-3.284 -2.672,-5.957 -5.957,-5.957" />
      </g>
      <g
         transform="translate(395.2939,459.6779)"
         id="g907">
        <path
           id="path909"
           style="fill:#352c5a;fill-opacity:1;fill-rule:nonzero;stroke:none"
           d="m 0,0 c -1.716,0 -3.112,-1.396 -3.112,-3.112 0,-1.716 1.396,-3.112 3.112,-3.112 1.716,0 3.112,1.396 3.112,3.112 C 3.112,-1.396 1.716,0 0,0 m 0,-9.07 c -3.285,0 -5.958,2.674 -5.958,5.958 0,3.284 2.673,5.957 5.958,5.957 3.285,0 5.957,-2.673 5.957,-5.957 C 5.957,-6.396 3.285,-9.07 0,-9.07" />
      </g>
      <g
         transform="translate(468.5918,452.0519)"
         id="g911">
        <path
           id="path913"
           style="fill:#352c5a;fill-opacity:1;fill-rule:nonzero;stroke:none"
           d="m 0,0 h -28.217 c -0.786,0 -1.423,0.636 -1.423,1.422 0,0.787 0.637,1.423 1.423,1.423 L 0,2.845 c 2.483,0 4.505,2.02 4.505,4.505 0,2.483 -2.022,4.505 -4.505,4.505 h -16.362 c -4.052,0 -7.35,3.298 -7.35,7.351 0,4.053 3.298,7.35 7.35,7.35 h 16.124 c 2.615,0 4.743,2.128 4.743,4.743 0,2.615 -2.128,4.742 -4.743,4.742 h -5.321 c -2.883,0 -5.23,2.346 -5.23,5.23 V 73.86 c 0,0.786 0.637,1.422 1.423,1.422 0.785,0 1.423,-0.636 1.423,-1.422 V 41.271 c 0,-1.315 1.069,-2.385 2.384,-2.385 h 5.321 c 4.184,0 7.588,-3.404 7.588,-7.587 0,-4.185 -3.404,-7.589 -7.588,-7.589 h -16.124 c -2.484,0 -4.504,-2.02 -4.504,-4.504 0,-2.484 2.02,-4.505 4.504,-4.505 H 0 c 4.053,0 7.35,-3.299 7.35,-7.351 C 7.35,3.297 4.053,0 0,0" />
      </g>
      <g
         transform="translate(435.6328,456.9396)"
         id="g915">
        <path
           id="path917"
           style="fill:#352c5a;fill-opacity:1;fill-rule:nonzero;stroke:none"
           d="m 0,0 v -6.93 c 1.843,0.077 3.319,1.602 3.319,3.465 C 3.319,-1.602 1.843,-0.078 0,0 m -0.148,-9.778 h -1.275 c -0.786,0 -1.423,0.636 -1.423,1.423 v 9.78 c 0,0.786 0.637,1.423 1.423,1.423 h 1.275 c 3.481,0 6.313,-2.831 6.313,-6.313 0,-3.482 -2.832,-6.313 -6.313,-6.313" />
      </g>
      <g
         transform="translate(376.71,430.5338)"
         id="g919">
        <path
           id="path921"
           style="fill:#352c5a;fill-opacity:1;fill-rule:nonzero;stroke:none"
           d="m 0,0 h 69 v 4.919 c 0,1.569 -1.276,2.846 -2.846,2.846 H 2.845 C 1.276,7.765 0,6.488 0,4.919 Z M 70.423,-2.845 H -1.422 c -0.786,0 -1.423,0.636 -1.423,1.422 v 6.342 c 0,3.139 2.553,5.691 5.69,5.691 h 63.309 c 3.138,0 5.692,-2.552 5.692,-5.691 v -6.342 c 0,-0.786 -0.638,-1.422 -1.423,-1.422" />
      </g>
    </g>
  </g>
</svg>
