<?xml version="1.0" encoding="utf-8"?>
<!-- Generator: Adobe Illustrator 25.2.1, SVG Export Plug-In . SVG Version: 6.00 Build 0)  -->
<svg version="1.1" id="Layer_1" xmlns="http://www.w3.org/2000/svg" xmlns:xlink="http://www.w3.org/1999/xlink" x="0px" y="0px"
	 viewBox="0 0 20.3 13.8" style="enable-background:new 0 0 20.3 13.8;" xml:space="preserve">
<style type="text/css">
	.st0{fill:#DB0D15;}
</style>
<g>
	<path class="st0" d="M17.5,12c-0.8,0-1.5,0-2.2,0c-0.4,0-0.7,0.2-0.7,0.6c0,0.5,0.3,0.6,0.7,0.6c1.2,0,2.4,0,3.6,0
		c0.5,0,0.8-0.2,0.8-0.8c0-1.2,0-2.4,0-3.6c0-0.4-0.2-0.7-0.6-0.8c-0.4,0-0.6,0.3-0.7,0.8c0,0.7,0,1.4,0,2c-0.2,0-0.3-0.2-0.4-0.3
		c-2-2-4-4-6.1-6c-0.5-0.5-0.8-0.5-1.3,0c-0.7,0.7-1.4,1.3-2,2.1C8.3,7,8.2,7,8,6.8c-2.1-2-4.2-3.9-6.3-5.9C1.6,0.7,1.5,0.6,1.3,0.5
		C1.1,0.4,0.8,0.4,0.6,0.6C0.3,0.9,0.3,1.2,0.5,1.5c0.1,0.1,0.2,0.2,0.3,0.3c2.3,2.2,4.6,4.3,6.9,6.5c0.5,0.5,0.7,0.5,1.3,0
		c0.7-0.7,1.4-1.4,2.1-2.1c0.2-0.2,0.3-0.2,0.5,0C13.5,8,15.4,10,17.5,12z"/>
</g>
</svg>
