<?xml version="1.0" encoding="utf-8"?>
<!-- Generator: Adobe Illustrator 25.2.1, SVG Export Plug-In . SVG Version: 6.00 Build 0)  -->
<svg version="1.1" id="Layer_1" xmlns="http://www.w3.org/2000/svg" xmlns:xlink="http://www.w3.org/1999/xlink" x="0px" y="0px"
	 viewBox="0 0 20.3 13.8" style="enable-background:new 0 0 20.3 13.8;" xml:space="preserve">
<style type="text/css">
	.st0{fill:#109B39;}
</style>
<g>
	<path class="st0" d="M17.5,1.7c-0.8,0-1.5,0-2.2,0c-0.4,0-0.7-0.2-0.7-0.6c0-0.5,0.3-0.6,0.7-0.6c1.2,0,2.4,0,3.6,0
		c0.5,0,0.8,0.2,0.8,0.8c0,1.2,0,2.4,0,3.6c0,0.4-0.2,0.7-0.6,0.8c-0.4,0-0.6-0.3-0.7-0.8c0-0.7,0-1.4,0-2c-0.2,0-0.3,0.2-0.4,0.3
		c-2,2-4,4-6.1,6c-0.5,0.5-0.8,0.5-1.3,0C10,8.3,9.3,7.7,8.6,7C8.3,6.7,8.2,6.8,8,7c-2.1,2-4.2,3.9-6.3,5.9
		c-0.1,0.1-0.2,0.2-0.4,0.3c-0.3,0.2-0.6,0.1-0.8-0.1c-0.2-0.2-0.3-0.5-0.1-0.8c0.1-0.1,0.2-0.2,0.3-0.3c2.3-2.2,4.6-4.3,6.9-6.5
		C8.2,5,8.4,5,8.9,5.5c0.7,0.7,1.4,1.4,2.1,2.1c0.2,0.2,0.3,0.2,0.5,0C13.5,5.7,15.4,3.8,17.5,1.7z"/>
</g>
</svg>
